<svg width="32" height="32" viewBox="0 0 32 32" fill="none" xmlns="http://www.w3.org/2000/svg">
<path d="M26.66 8.9173C27.8552 8.20276 28.7496 7.07762 29.176 5.75197C28.0529 6.41837 26.824 6.88781 25.5427 7.13997C23.7661 5.26068 20.9513 4.80333 18.6712 6.0235C16.3911 7.24368 15.21 9.83929 15.788 12.36C11.1875 12.129 6.9013 9.95585 3.99602 6.3813C2.47981 8.99653 3.25462 12.3397 5.76669 14.0213C4.8583 13.9921 3.97005 13.7461 3.17602 13.304C3.17602 13.328 3.17602 13.352 3.17602 13.376C3.17654 16.1001 5.09651 18.4468 7.76669 18.9866C6.9241 19.2158 6.04029 19.2496 5.18269 19.0853C5.93362 21.4151 8.08075 23.011 10.528 23.0587C8.50113 24.6495 5.99798 25.5123 3.42135 25.508C2.96465 25.5086 2.5083 25.4824 2.05469 25.4293C4.67121 27.1107 7.71651 28.003 10.8267 28C15.1537 28.0297 19.312 26.3238 22.3716 23.264C25.4312 20.2041 27.1368 16.0456 27.1067 11.7186C27.1067 11.4706 27.1009 11.224 27.0893 10.9786C28.21 10.1688 29.1771 9.1655 29.9453 8.01597C28.9013 8.47872 27.794 8.78253 26.66 8.9173Z" fill="#EEA249"/>
</svg>
