<svg width="32" height="32" viewBox="0 0 32 32" fill="none" xmlns="http://www.w3.org/2000/svg">
<path d="M16.0027 28.0547C12.7226 28.0547 12.3359 28.0373 11.0559 27.9813C10.0578 27.9485 9.07251 27.7456 8.14259 27.3813C6.53367 26.7552 5.26145 25.4825 4.63593 23.8733C4.28567 22.94 4.09675 21.954 4.07726 20.9573C4.00259 19.68 4.00259 19.2613 4.00259 16.0067C4.00259 12.7173 4.01993 12.3333 4.07726 11.06C4.09718 10.0647 4.28609 9.08 4.63593 8.14799C5.26077 6.53669 6.53506 5.26289 8.14659 4.63865C9.07813 4.28693 10.0631 4.09752 11.0586 4.07865C12.3319 4.00665 12.7506 4.00665 16.0027 4.00665C19.3093 4.00665 19.6893 4.02399 20.9493 4.07865C21.9473 4.09768 22.9349 4.28707 23.8693 4.63865C25.4804 5.2636 26.7544 6.53716 27.38 8.14799C27.7361 9.09359 27.926 10.0937 27.9413 11.104C28.016 12.3813 28.016 12.7987 28.016 16.052C28.016 19.3053 27.9973 19.732 27.9413 20.9947C27.9215 21.9923 27.732 22.9792 27.3813 23.9133C26.7541 25.5236 25.48 26.7968 23.8693 27.4227C22.9363 27.7723 21.9508 27.9612 20.9547 27.9813C19.6813 28.0546 19.264 28.0547 16.0027 28.0547ZM15.9573 6.11732C12.6959 6.11732 12.3573 6.13332 11.0839 6.19065C10.3239 6.20073 9.57123 6.34099 8.85859 6.60532C7.80627 7.008 6.97357 7.83732 6.56659 8.88799C6.30022 9.60839 6.15994 10.3693 6.15193 11.1373C6.08126 12.4293 6.08126 12.768 6.08126 16.0067C6.08126 19.2067 6.09326 19.5947 6.15193 20.8787C6.16387 21.6389 6.30406 22.3917 6.56659 23.1053C6.97417 24.1553 7.80673 24.984 8.85859 25.3867C9.57075 25.6528 10.3237 25.7931 11.0839 25.8013C12.3746 25.876 12.7146 25.876 15.9573 25.876C19.228 25.876 19.5667 25.86 20.8293 25.8013C21.5899 25.7921 22.3431 25.6519 23.056 25.3867C24.1019 24.9805 24.9292 24.1537 25.336 23.108C25.6019 22.3871 25.742 21.6257 25.7507 20.8573H25.7653C25.8227 19.5827 25.8227 19.2427 25.8227 15.9853C25.8227 12.728 25.808 12.3853 25.7507 11.112C25.7387 10.3526 25.5984 9.60068 25.336 8.88799C24.9301 7.84076 24.1027 7.01239 23.056 6.60532C22.3432 6.33965 21.5899 6.19936 20.8293 6.19065C19.54 6.11732 19.2027 6.11732 15.9573 6.11732ZM16.0027 22.1653C13.5092 22.1669 11.2605 20.6663 10.3051 18.3633C9.34967 16.0603 9.87581 13.4084 11.6381 11.6446C13.4004 9.88079 16.0517 9.35236 18.3556 10.3058C20.6595 11.2592 22.162 13.5067 22.1627 16C22.1589 19.4015 19.404 22.1587 16.0027 22.1653ZM16.0027 11.9973C13.7935 11.9973 12.0026 13.7883 12.0026 15.9973C12.0026 18.2065 13.7935 19.9973 16.0027 19.9973C18.2117 19.9973 20.0027 18.2065 20.0027 15.9973C19.9975 13.7903 18.2096 12.0025 16.0027 11.9973ZM22.4027 11.0467C21.6099 11.0437 20.9692 10.3994 20.9707 9.60667C20.9721 8.81389 21.6152 8.172 22.408 8.172C23.2007 8.172 23.8437 8.81388 23.8453 9.60665C23.8456 9.98915 23.6936 10.356 23.4229 10.6262C23.1523 10.8964 22.7851 11.0477 22.4027 11.0467Z" fill="#EEA249"/>
</svg>
