<svg width="32" height="32" viewBox="0 0 32 32" fill="none" xmlns="http://www.w3.org/2000/svg">
<path d="M2.66925 16.0027C2.67081 22.5619 7.44046 28.1468 13.9187 29.1747V19.856H10.5359V16.0027H13.9227V13.0694C13.7712 11.6794 14.246 10.2942 15.2181 9.28929C16.1903 8.28441 17.5591 7.76406 18.9533 7.86937C19.954 7.88554 20.9521 7.97466 21.94 8.13605V11.4147H20.2547C19.6744 11.3387 19.0911 11.5303 18.6689 11.9356C18.2468 12.3409 18.0316 12.9159 18.084 13.4986V16.0027H21.7787L21.188 19.8573H18.084V29.1747C25.0898 28.0674 30.0027 21.6691 29.2633 14.6148C28.5239 7.56053 22.3909 2.31994 15.3077 2.68961C8.2244 3.05928 2.67038 8.90978 2.66925 16.0027Z" fill="#EEA249"/>
</svg>
