<svg width="32" height="32" viewBox="0 0 32 32" fill="none" xmlns="http://www.w3.org/2000/svg">
<path d="M16.008 25.3494H15.9814C15.8987 25.3494 7.62803 25.3334 5.54136 24.7667C4.39393 24.4576 3.49782 23.561 3.18936 22.4134C2.81413 20.2966 2.63294 18.1498 2.64802 16C2.63833 13.8467 2.82444 11.697 3.20403 9.57735C3.52097 8.4287 4.41313 7.52795 5.55869 7.20002C7.58803 6.66669 15.6307 6.66669 15.972 6.66669H16C16.084 6.66669 24.376 6.68269 26.4414 7.24935C27.5864 7.56003 28.4807 8.45482 28.7907 9.60002C29.1779 11.7247 29.3596 13.8818 29.3334 16.0414C29.3427 18.192 29.1562 20.3391 28.776 22.456C28.4636 23.6022 27.567 24.4968 26.42 24.8067C24.3934 25.344 16.3494 25.3494 16.008 25.3494ZM13.3414 12.0067L13.3347 20.0067L20.284 16.0067L13.3414 12.0067Z" fill="#EEA249"/>
</svg>
